<?xml version="1.0" standalone="no"?>
<!DOCTYPE svg PUBLIC "-//W3C//DTD SVG 20010904//EN"
 "http://www.w3.org/TR/2001/REC-SVG-20010904/DTD/svg10.dtd">
<svg version="1.0" xmlns="http://www.w3.org/2000/svg"
 width="453.000000pt" height="440.000000pt" viewBox="0 0 453.000000 440.000000"
 preserveAspectRatio="xMidYMid meet">

<g transform="translate(0.000000,440.000000) scale(0.100000,-0.100000)"
fill="#000000" stroke="none">
<path d="M2010 4266 c-270 -43 -473 -108 -689 -222 -549 -290 -942 -816 -1077
-1441 -8 -38 -19 -152 -24 -255 -12 -223 0 -442 31 -584 27 -126 98 -330 161
-464 51 -109 163 -306 180 -316 10 -7 54 30 69 58 7 13 -4 39 -46 108 -131
216 -211 419 -271 685 -21 94 -30 465 -15 604 49 450 274 888 619 1204 295
270 614 432 992 501 649 118 1334 -106 1782 -584 346 -368 528 -806 545 -1310
6 -192 -8 -320 -63 -551 -19 -81 -34 -154 -34 -162 0 -19 68 -63 80 -51 17 17
91 328 100 420 15 148 13 473 -4 614 -37 304 -190 665 -399 945 -80 107 -301
326 -410 407 -267 197 -555 321 -882 379 -153 27 -514 35 -645 15z"/>
<path d="M3822 1956 c-16 -19 -44 -54 -61 -79 -28 -42 -41 -49 -184 -110 -270
-115 -313 -127 -436 -127 -60 0 -225 10 -367 22 -192 16 -343 22 -584 22
l-325 1 -109 -28 c-282 -74 -540 -209 -750 -393 -49 -42 -172 -156 -275 -252
-239 -225 -332 -302 -498 -413 -98 -66 -132 -94 -124 -102 26 -26 530 -33 646
-8 187 40 341 107 448 196 80 67 132 130 211 262 86 142 153 219 173 200 2 -3
-11 -47 -30 -99 -19 -51 -38 -120 -42 -153 -10 -83 -17 -96 -80 -165 -33 -36
-55 -69 -55 -82 0 -21 22 -210 36 -319 l6 -46 -188 -7 c-464 -16 -791 -50
-781 -79 12 -37 391 -63 1112 -78 612 -12 994 -12 1580 2 652 14 1129 39 1207
63 l43 13 -28 12 c-59 23 -348 49 -812 71 -300 14 -297 13 -329 91 -19 47 -81
291 -100 400 l-16 84 49 45 c54 49 427 288 549 352 72 37 83 40 158 40 44 0
118 -6 163 -12 45 -7 106 -10 135 -8 52 4 105 32 106 55 0 6 -37 44 -81 85
-97 87 -131 133 -153 210 -11 40 -31 74 -61 108 -47 53 -50 61 -60 149 -7 62
-18 86 -44 101 -16 8 -25 4 -49 -24z m-1421 -991 c123 -36 245 -55 354 -55
104 -1 158 -46 218 -185 56 -127 157 -378 163 -400 5 -20 1 -25 -19 -30 -14
-4 -208 -2 -432 3 l-407 9 -64 64 c-66 65 -162 192 -195 256 -23 46 -21 50 98
180 51 56 93 104 93 107 0 15 -181 -57 -278 -111 -66 -37 -92 -65 -92 -99 0
-25 47 -93 168 -242 96 -119 117 -150 108 -159 -12 -12 -441 -15 -511 -5 -100
16 -110 30 -120 167 l-7 107 53 55 c75 76 208 162 384 249 169 83 272 122 328
123 21 1 92 -15 158 -34z"/>
<path d="M2752 824 c3 -10 22 -73 43 -139 43 -140 54 -215 34 -231 -8 -6 -57
-23 -109 -38 -99 -28 -120 -39 -120 -62 0 -31 46 -38 139 -22 114 20 209 62
217 95 15 56 -23 221 -69 307 -34 63 -64 91 -111 102 -25 6 -28 4 -24 -12z"/>
<path d="M3989 1172 c-13 -16 -53 -71 -89 -123 -115 -165 -313 -358 -505 -492
-110 -76 -120 -89 -109 -129 6 -18 17 -34 26 -36 17 -3 88 40 223 137 175 126
356 319 507 539 39 58 66 108 62 112 -5 5 -27 12 -50 15 -37 6 -43 4 -65 -23z"/>
<path d="M1113 533 c-18 -9 -33 -20 -33 -24 0 -3 15 -17 33 -31 40 -29 202
-128 211 -128 8 0 8 58 0 96 -4 22 -20 38 -69 67 -70 41 -94 44 -142 20z"/>
</g>
</svg>
